<?xml version="1.0" encoding="utf-8"?>
<!-- Generator: Adobe Illustrator 15.1.0, SVG Export Plug-In . SVG Version: 6.00 Build 0)  -->
<!DOCTYPE svg PUBLIC "-//W3C//DTD SVG 1.1//EN" "http://www.w3.org/Graphics/SVG/1.1/DTD/svg11.dtd">
<svg version="1.1" id="Layer_1" xmlns="http://www.w3.org/2000/svg" xmlns:xlink="http://www.w3.org/1999/xlink" x="0px" y="0px"
	 width="671.213px" height="181.405px" viewBox="0 0 671.213 181.405" enable-background="new 0 0 671.213 181.405"
	 xml:space="preserve">
<g>
	<path fill="#005687" d="M208.171,60.208c0,6.335,0,11.547,0.33,14.318c0.195,1.914,0.592,3.366,2.575,3.631
		c0.921,0.132,2.375,0.263,2.966,0.263c0.396,0,0.531,0.198,0.531,0.397c0,0.33-0.33,0.528-1.056,0.528
		c-3.631,0-7.788-0.198-8.117-0.198s-4.489,0.198-6.469,0.198c-0.727,0-1.056-0.131-1.056-0.528c0-0.199,0.134-0.397,0.531-0.397
		c0.592,0,1.386-0.131,1.978-0.263c1.318-0.266,1.648-1.718,1.914-3.631c0.333-2.771,0.333-7.983,0.333-14.318V48.593
		c0-10.296,0-12.143-0.135-14.254c-0.134-2.246-0.793-3.366-2.246-3.695c-0.723-0.199-1.58-0.266-2.044-0.266
		c-0.262,0-0.525-0.131-0.525-0.396c0-0.394,0.33-0.528,1.056-0.528c2.176,0,6.335,0.198,6.665,0.198s4.486-0.198,6.463-0.198
		c0.727,0,1.056,0.134,1.056,0.528c0,0.266-0.262,0.396-0.525,0.396c-0.464,0-0.86,0.067-1.651,0.199
		c-1.779,0.329-2.31,1.452-2.441,3.762c-0.131,2.112-0.131,3.958-0.131,14.254V60.208z"/>
	<path fill="#005687" d="M232.584,71.688c0.128,4.621,0.66,6.006,2.24,6.402c1.056,0.266,2.381,0.33,2.906,0.33
		c0.262,0,0.463,0.198,0.463,0.461c0,0.333-0.396,0.464-1.056,0.464c-3.302,0-5.609-0.198-6.14-0.198
		c-0.525,0-2.967,0.198-5.609,0.198c-0.593,0-0.922-0.067-0.922-0.464c0-0.263,0.196-0.461,0.461-0.461
		c0.461,0,1.517-0.064,2.377-0.33c1.454-0.396,1.648-1.914,1.648-6.995v-32.14c0-2.243,0.33-2.835,0.794-2.835
		c0.659,0,1.648,1.12,2.243,1.715c0.924,0.921,9.372,9.899,18.344,19.137c5.744,5.939,11.944,12.604,13.727,14.453l-0.592-28.112
		c-0.067-3.631-0.396-4.885-2.179-5.214c-1.056-0.199-2.374-0.263-2.838-0.263c-0.396,0-0.461-0.33-0.461-0.528
		c0-0.33,0.461-0.397,1.12-0.397c2.643,0,5.414,0.132,6.073,0.132c0.66,0,2.576-0.132,4.95-0.132c0.592,0,1.056,0.068,1.056,0.397
		c0,0.198-0.263,0.528-0.66,0.528c-0.263,0-0.726,0-1.385,0.131c-1.916,0.397-2.044,1.517-2.044,4.883l-0.134,32.864
		c0,3.699-0.067,4.028-0.464,4.028c-0.592,0-1.184-0.464-4.419-3.433c-0.592-0.528-8.975-8.777-15.112-15.18
		c-6.732-7.058-13.266-13.925-15.045-15.902L232.584,71.688z"/>
	<path fill="#005687" d="M280.221,78.551c-0.794-0.394-0.857-0.592-0.857-2.112c0-2.771,0.265-5.014,0.329-5.938
		c0-0.592,0.132-0.924,0.461-0.924c0.33,0,0.531,0.198,0.531,0.662c0,0.461,0,1.252,0.196,2.044
		c0.924,4.093,5.279,5.542,9.173,5.542c5.743,0,8.709-3.231,8.709-7.456c0-4.024-2.176-5.938-7.324-9.768l-2.637-1.978
		c-6.271-4.687-8.319-8.117-8.319-12.011c0-6.601,5.216-10.559,12.872-10.559c2.308,0,4.621,0.33,6.006,0.66
		c1.12,0.266,1.581,0.266,2.044,0.266c0.461,0,0.592,0.064,0.592,0.393c0,0.266-0.262,2.112-0.262,5.941
		c0,0.858-0.067,1.255-0.463,1.255c-0.397,0-0.461-0.266-0.525-0.727c-0.067-0.662-0.531-2.178-0.861-2.774
		c-0.397-0.659-2.307-2.771-7.522-2.771c-4.223,0-7.721,2.112-7.721,6.073c0,3.562,1.783,5.609,7.522,9.503l1.651,1.12
		c7.058,4.819,9.503,8.713,9.503,13.528c0,3.302-1.254,6.863-5.41,9.57c-2.442,1.584-6.073,1.98-9.241,1.98
		C285.964,80.071,282.595,79.674,280.221,78.551z"/>
	<path fill="#005687" d="M323.64,63.042c0,5.414,0,9.835,0.262,12.146c0.202,1.648,0.396,2.703,2.112,2.969
		c0.86,0.132,2.111,0.263,2.643,0.263c0.329,0,0.458,0.266,0.458,0.461c0,0.266-0.263,0.464-0.922,0.464
		c-3.234,0-6.995-0.198-7.257-0.198c-0.333,0-3.961,0.198-5.743,0.198c-0.592,0-0.925-0.131-0.925-0.464
		c0-0.195,0.131-0.461,0.461-0.461c0.531,0,1.258-0.131,1.783-0.263c1.123-0.266,1.321-1.321,1.52-2.969
		c0.262-2.311,0.329-6.732,0.329-12.146v-9.896c0-8.713,0-10.297-0.134-12.079c-0.128-1.913-0.592-2.771-1.847-3.034
		c-0.659-0.134-1.385-0.198-1.779-0.198c-0.269,0-0.464-0.266-0.464-0.464c0-0.329,0.262-0.461,0.921-0.461
		c1.917,0,5.545,0.132,5.877,0.132c0.262,0,4.022-0.132,5.804-0.132c0.66,0,0.925,0.132,0.925,0.461
		c0,0.199-0.266,0.464-0.461,0.464c-0.397,0-0.793,0-1.453,0.131c-1.584,0.33-1.917,1.123-2.045,3.101
		c-0.067,1.782-0.067,3.366-0.067,12.079V63.042z"/>
	<path fill="#005687" d="M342.708,53.146c0-8.713,0-10.297-0.132-12.079c-0.131-1.913-0.461-2.835-2.377-3.101
		c-0.458-0.067-1.45-0.131-1.978-0.131c-0.198,0-0.463-0.266-0.463-0.464c0-0.329,0.266-0.461,0.927-0.461
		c2.637,0,6.399,0.132,6.729,0.132c0.663,0,4.355-0.132,7.785-0.132c5.811,0,16.436-0.527,23.297,6.402
		c2.905,2.903,5.676,7.59,5.676,14.255c0,7.061-3.034,12.472-6.268,15.771c-2.508,2.572-7.721,6.466-17.621,6.466
		c-2.508,0-5.609-0.198-8.117-0.33c-2.508-0.198-4.486-0.329-4.751-0.329c-0.131,0-1.187,0.067-2.377,0.067
		c-1.185,0.064-2.573,0.131-3.498,0.131c-0.592,0-0.921-0.131-0.921-0.464c0-0.195,0.131-0.461,0.46-0.461
		c0.528,0,1.255-0.131,1.783-0.263c1.12-0.266,1.254-1.321,1.516-2.969c0.331-2.311,0.331-6.732,0.331-12.146V53.146z
		 M347.986,59.215c0,5.939,0,11.154,0.068,12.21c0.067,1.386,0.198,3.431,0.659,4.026c0.727,1.055,2.771,2.243,9.638,2.243
		c5.343,0,10.095-1.783,13.592-5.081c3.037-2.839,4.554-8.182,4.554-13.33c0-7.129-3.101-11.682-5.475-14.057
		c-5.481-5.545-11.88-6.271-18.811-6.271c-1.123,0-2.966,0.198-3.498,0.396c-0.525,0.199-0.727,0.461-0.727,1.123V59.215z"/>
	<path fill="#005687" d="M395.495,53.146c0-8.713,0-10.297-0.134-12.079c-0.129-1.913-0.458-2.835-2.375-3.101
		c-0.464-0.067-1.452-0.131-1.978-0.131c-0.201,0-0.464-0.266-0.464-0.464c0-0.329,0.263-0.461,0.922-0.461
		c2.643,0,6.402,0.132,6.732,0.132c0.396,0,12.542,0.067,13.86,0c1.123-0.064,2.179-0.263,2.637-0.33
		c0.269-0.067,0.531-0.263,0.794-0.263c0.197,0,0.262,0.263,0.262,0.528c0,0.393-0.329,1.055-0.458,2.639
		c-0.066,0.528-0.201,3.034-0.329,3.695c-0.067,0.263-0.269,0.593-0.531,0.593c-0.329,0-0.461-0.262-0.461-0.727
		c0-0.393-0.063-1.318-0.332-1.978c-0.394-0.924-0.988-1.321-4.157-1.718c-0.988-0.132-7.72-0.195-8.38-0.195
		c-0.262,0-0.329,0.195-0.329,0.592v15.247c0,0.393,0,0.592,0.329,0.592c0.727,0,8.38,0,9.702-0.132
		c1.385-0.131,2.242-0.198,2.835-0.792c0.396-0.395,0.661-0.724,0.86-0.724c0.195,0,0.329,0.131,0.329,0.461
		c0,0.33-0.329,1.254-0.463,3.101c-0.129,1.123-0.263,3.234-0.263,3.631c0,0.46-0.132,1.056-0.528,1.056
		c-0.266,0-0.394-0.199-0.394-0.528c0-0.528,0-1.123-0.266-1.85c-0.198-0.791-0.727-1.452-2.969-1.715
		c-1.588-0.199-7.788-0.266-8.777-0.266c-0.329,0-0.396,0.199-0.396,0.396v4.685c0,1.917-0.067,8.448,0,9.571
		c0.131,3.762,1.187,4.489,6.928,4.489c1.52,0,4.29,0,5.811-0.596c1.516-0.659,2.307-1.65,2.636-3.893
		c0.135-0.66,0.266-0.858,0.596-0.858c0.332,0,0.396,0.461,0.396,0.858c0,0.396-0.461,4.223-0.79,5.41
		c-0.397,1.452-0.992,1.452-3.235,1.452c-4.358,0-7.721-0.131-10.098-0.198c-2.441-0.131-3.958-0.131-4.818-0.131
		c-0.129,0-1.252,0-2.509,0.067c-1.12,0.064-2.441,0.131-3.363,0.131c-0.592,0-0.925-0.131-0.925-0.464
		c0-0.195,0.132-0.461,0.461-0.461c0.531,0,1.257-0.198,1.782-0.263c1.123-0.198,1.258-1.321,1.521-2.969
		c0.329-2.311,0.329-6.732,0.329-12.146V53.146z"/>
	<path fill="#005687" d="M455.273,73.14c-6.398-5.74-7.985-13.265-7.985-19.534c0-4.421,1.52-12.142,7.391-18.017
		c3.962-3.958,9.967-7.059,20.13-7.059c2.64,0,6.335,0.199,9.569,0.791c2.509,0.464,4.62,0.857,6.732,0.989
		c0.727,0.067,0.854,0.333,0.854,0.726c0,0.528-0.195,1.322-0.33,3.696c-0.128,2.178-0.128,5.808-0.195,6.799
		c-0.066,0.989-0.201,1.386-0.595,1.386c-0.461,0-0.528-0.461-0.528-1.386c0-2.575-1.056-5.279-2.771-6.732
		c-2.311-1.98-7.391-3.763-13.201-3.763c-8.776,0-12.866,2.576-15.176,4.819c-4.819,4.62-5.942,10.491-5.942,17.223
		c0,12.607,9.704,24.154,23.828,24.154c4.949,0,8.84-0.595,11.48-3.299c1.385-1.453,2.246-4.357,2.441-5.545
		c0.134-0.726,0.262-0.988,0.658-0.988c0.33,0,0.465,0.46,0.465,0.988c0,0.464-0.794,6.205-1.453,8.448
		c-0.396,1.254-0.527,1.386-1.716,1.914c-2.639,1.055-7.652,1.52-11.876,1.52C467.154,80.27,460.489,77.825,455.273,73.14z"/>
	<path fill="#005687" d="M515.255,38.034c0.727-1.849,0.988-2.178,1.386-2.178c0.592,0,0.794,0.791,1.386,2.044
		c1.055,2.377,10.36,25.54,13.922,34.054c2.111,5.014,3.698,5.74,4.949,6.137c0.86,0.266,1.718,0.33,2.313,0.33
		c0.329,0,0.726,0.131,0.726,0.461c0,0.333-0.661,0.464-1.321,0.464c-0.857,0-5.147,0-9.173-0.131
		c-1.12-0.067-2.048-0.067-2.048-0.396c0-0.266,0.135-0.266,0.397-0.397c0.329-0.131,0.924-0.595,0.53-1.517l-5.215-12.869
		c-0.131-0.266-0.199-0.33-0.528-0.33h-13.396c-0.263,0-0.465,0.131-0.593,0.46l-3.302,8.975c-0.524,1.386-0.857,2.771-0.857,3.763
		c0,1.12,0.991,1.517,1.98,1.517h0.528c0.461,0,0.595,0.198,0.595,0.461c0,0.333-0.329,0.464-0.86,0.464
		c-1.386,0-4.553-0.198-5.213-0.198c-0.592,0-3.496,0.198-5.871,0.198c-0.726,0-1.123-0.131-1.123-0.464
		c0-0.263,0.263-0.461,0.525-0.461c0.396,0,1.258-0.064,1.718-0.131c2.64-0.33,3.763-2.31,4.886-5.149L515.255,38.034z
		 M521.722,61.395c0.266,0,0.266-0.131,0.198-0.396l-5.743-15.374c-0.329-0.861-0.659-0.861-0.988,0l-5.414,15.374
		c-0.064,0.266,0,0.396,0.201,0.396H521.722z"/>
	<path fill="#005687" d="M547.585,53.146c0-8.713,0-10.297-0.135-12.079c-0.128-1.913-0.457-2.835-2.374-3.101
		c-0.464-0.067-1.452-0.131-1.978-0.131c-0.201,0-0.464-0.266-0.464-0.464c0-0.329,0.263-0.461,0.921-0.461
		c2.644,0,6.537,0.132,6.867,0.132c0.592,0,5.475-0.132,7.257-0.132c3.698,0,7.788,0.33,10.824,2.441
		c1.449,1.056,4.025,3.763,4.025,7.657c0,4.157-1.716,8.181-7.129,12.802c4.755,5.938,8.776,11.02,12.146,14.517
		c3.101,3.167,5.014,3.695,6.466,3.894c1.12,0.198,1.716,0.198,2.049,0.198c0.329,0,0.524,0.266,0.524,0.461
		c0,0.333-0.329,0.464-1.385,0.464h-3.632c-3.296,0-4.748-0.33-6.201-1.123c-2.509-1.319-4.62-4.026-7.919-8.249
		c-2.441-3.037-5.015-6.665-6.271-8.182c-0.262-0.265-0.394-0.329-0.79-0.329l-7.392-0.135c-0.266,0-0.394,0.135-0.394,0.464v1.318
		c0,5.411,0,9.769,0.263,12.079c0.195,1.648,0.528,2.703,2.307,2.969c0.794,0.132,2.048,0.263,2.575,0.263
		c0.397,0,0.465,0.266,0.465,0.461c0,0.266-0.266,0.464-0.928,0.464c-3.168,0-6.86-0.198-7.123-0.198
		c-0.067,0-3.961,0.198-5.743,0.198c-0.593,0-0.925-0.131-0.925-0.464c0-0.195,0.132-0.461,0.461-0.461
		c0.531,0,1.257-0.131,1.782-0.263c1.123-0.266,1.258-1.321,1.52-2.969c0.33-2.311,0.33-6.732,0.33-12.146V53.146z M552.602,57.897
		c0,0.33,0.128,0.528,0.394,0.726c0.857,0.461,3.83,0.857,6.399,0.857c1.389,0,2.973-0.067,4.358-0.991
		c1.977-1.319,3.496-4.288,3.496-8.579c0-6.994-3.826-11.019-10.03-11.019c-1.715,0-3.562,0.198-4.159,0.329
		c-0.263,0.131-0.458,0.33-0.458,0.659V57.897z"/>
</g>
<g>
	<path fill="#005687" d="M205.661,141.806c-6.401-5.739-7.982-13.264-7.982-19.533c0-4.421,1.514-12.143,7.391-18.017
		c3.955-3.958,9.96-7.06,20.129-7.06c2.635,0,6.334,0.2,9.563,0.792c2.509,0.465,4.62,0.857,6.732,0.988
		c0.727,0.067,0.86,0.333,0.86,0.727c0,0.528-0.202,1.321-0.33,3.696c-0.134,2.178-0.134,5.808-0.202,6.799
		c-0.066,0.988-0.195,1.386-0.591,1.386c-0.465,0-0.531-0.462-0.531-1.386c0-2.577-1.056-5.28-2.771-6.733
		c-2.308-1.979-7.391-3.762-13.196-3.762c-8.776,0-12.871,2.577-15.179,4.818c-4.815,4.621-5.939,10.493-5.939,17.223
		c0,12.608,9.699,24.155,23.823,24.155c4.949,0,8.842-0.596,11.486-3.299c1.385-1.453,2.24-4.356,2.441-5.545
		c0.128-0.727,0.262-0.988,0.659-0.988c0.33,0,0.459,0.46,0.459,0.988c0,0.465-0.788,6.204-1.447,8.448
		c-0.397,1.253-0.531,1.386-1.721,1.912c-2.637,1.056-7.654,1.521-11.877,1.521C217.539,148.936,210.874,146.491,205.661,141.806z"
		/>
	<path fill="#005687" d="M272.506,104.787c13.066,0,22.966,7.982,22.966,21.05c0,12.539-9.301,22.898-23.296,22.898
		c-15.899,0-22.699-11.942-22.699-22.041C249.478,117.652,256.473,104.787,272.506,104.787z M273.83,146.427
		c5.212,0,15.704-2.771,15.704-19.006c0-13.464-8.184-20.523-17.357-20.523c-9.698,0-16.693,6.071-16.693,18.281
		C255.483,138.243,263.338,146.427,273.83,146.427z"/>
	<path fill="#005687" d="M310.054,140.354c0.128,4.62,0.659,6.006,2.24,6.402c1.056,0.265,2.38,0.33,2.905,0.33
		c0.263,0,0.463,0.198,0.463,0.462c0,0.332-0.396,0.463-1.056,0.463c-3.301,0-5.608-0.198-6.139-0.198
		c-0.525,0-2.967,0.198-5.61,0.198c-0.591,0-0.92-0.067-0.92-0.463c0-0.264,0.195-0.462,0.457-0.462c0.463,0,1.52-0.065,2.38-0.33
		c1.453-0.396,1.649-1.913,1.649-6.995v-32.14c0-2.242,0.33-2.834,0.793-2.834c0.659,0,1.648,1.119,2.24,1.715
		c0.928,0.922,9.375,9.9,18.347,19.136c5.744,5.939,11.944,12.605,13.727,14.453l-0.593-28.112
		c-0.066-3.631-0.397-4.885-2.178-5.214c-1.056-0.2-2.375-0.263-2.838-0.263c-0.397,0-0.458-0.33-0.458-0.528
		c0-0.33,0.458-0.397,1.116-0.397c2.643,0,5.414,0.132,6.073,0.132c0.659,0,2.575-0.132,4.951-0.132
		c0.591,0,1.056,0.067,1.056,0.397c0,0.199-0.264,0.528-0.661,0.528c-0.262,0-0.725,0-1.385,0.131
		c-1.917,0.397-2.044,1.518-2.044,4.883l-0.134,32.863c0,3.698-0.067,4.027-0.463,4.027c-0.592,0-1.185-0.463-4.419-3.433
		c-0.591-0.526-8.978-8.776-15.111-15.179c-6.734-7.059-13.264-13.926-15.045-15.902L310.054,140.354z"/>
	<path fill="#005687" d="M363.695,140.354c0.135,4.62,0.66,6.006,2.247,6.402c1.055,0.265,2.374,0.33,2.905,0.33
		c0.262,0,0.457,0.198,0.457,0.462c0,0.332-0.397,0.463-1.056,0.463c-3.296,0-5.608-0.198-6.133-0.198
		c-0.531,0-2.973,0.198-5.61,0.198c-0.597,0-0.927-0.067-0.927-0.463c0-0.264,0.2-0.462,0.463-0.462c0.463,0,1.52-0.065,2.374-0.33
		c1.453-0.396,1.655-1.913,1.655-6.995v-32.14c0-2.242,0.33-2.834,0.787-2.834c0.659,0,1.653,1.119,2.246,1.715
		c0.922,0.922,9.369,9.9,18.347,19.136c5.738,5.939,11.945,12.605,13.726,14.453l-0.598-28.112
		c-0.062-3.631-0.392-4.885-2.174-5.214c-1.055-0.2-2.38-0.263-2.837-0.263c-0.397,0-0.463-0.33-0.463-0.528
		c0-0.33,0.463-0.397,1.122-0.397c2.638,0,5.408,0.132,6.073,0.132c0.659,0,2.569-0.132,4.949-0.132
		c0.593,0,1.057,0.067,1.057,0.397c0,0.199-0.269,0.528-0.665,0.528c-0.262,0-0.727,0-1.386,0.131
		c-1.91,0.397-2.044,1.518-2.044,4.883l-0.128,32.863c0,3.698-0.068,4.027-0.465,4.027c-0.592,0-1.19-0.463-4.425-3.433
		c-0.593-0.526-8.972-8.776-15.112-15.179c-6.732-7.059-13.262-13.926-15.045-15.902L363.695,140.354z"/>
	<path fill="#005687" d="M414.902,121.812c0-8.713,0-10.296-0.134-12.079c-0.134-1.912-0.463-2.835-2.374-3.1
		c-0.463-0.068-1.453-0.131-1.984-0.131c-0.193,0-0.457-0.267-0.457-0.463c0-0.33,0.264-0.462,0.922-0.462
		c2.642,0,6.402,0.132,6.732,0.132c0.396,0,12.535,0.066,13.861,0c1.115-0.065,2.172-0.263,2.635-0.33
		c0.264-0.068,0.531-0.263,0.795-0.263c0.195,0,0.262,0.263,0.262,0.528c0,0.395-0.33,1.056-0.464,2.639
		c-0.062,0.53-0.195,3.034-0.329,3.696c-0.062,0.263-0.264,0.593-0.525,0.593c-0.329,0-0.463-0.262-0.463-0.727
		c0-0.394-0.068-1.318-0.331-1.977c-0.396-0.925-0.988-1.323-4.155-1.718c-0.989-0.132-7.722-0.197-8.381-0.197
		c-0.268,0-0.329,0.197-0.329,0.592v15.247c0,0.393,0,0.593,0.329,0.593c0.727,0,8.381,0,9.699-0.132
		c1.385-0.131,2.246-0.197,2.837-0.793c0.397-0.394,0.66-0.724,0.86-0.724c0.195,0,0.331,0.131,0.331,0.46s-0.331,1.254-0.465,3.101
		c-0.134,1.124-0.262,3.236-0.262,3.633c0,0.459-0.134,1.056-0.531,1.056c-0.263,0-0.397-0.2-0.397-0.53
		c0-0.526,0-1.122-0.262-1.849c-0.195-0.79-0.727-1.452-2.966-1.715c-1.588-0.199-7.788-0.267-8.776-0.267
		c-0.336,0-0.397,0.2-0.397,0.397v4.684c0,1.917-0.067,8.447,0,9.571c0.128,3.762,1.184,4.488,6.928,4.488
		c1.52,0,4.29,0,5.804-0.596c1.52-0.659,2.313-1.65,2.643-3.893c0.134-0.659,0.262-0.859,0.593-0.859
		c0.33,0,0.396,0.462,0.396,0.859c0,0.396-0.463,4.224-0.792,5.409c-0.392,1.453-0.989,1.453-3.23,1.453
		c-4.356,0-7.72-0.131-10.1-0.198c-2.441-0.131-3.955-0.131-4.815-0.131c-0.134,0-1.252,0-2.51,0.067
		c-1.122,0.063-2.441,0.131-3.361,0.131c-0.6,0-0.929-0.131-0.929-0.463c0-0.197,0.134-0.462,0.464-0.462
		c0.524,0,1.251-0.197,1.782-0.262c1.124-0.199,1.252-1.321,1.52-2.97c0.329-2.311,0.329-6.732,0.329-12.146V121.812z"/>
	<path fill="#005687" d="M451.718,142.732c-5.676-4.884-7.062-11.288-7.062-16.632c0-3.759,1.386-10.294,6.537-15.311
		c3.497-3.365,8.777-6.002,17.688-6.002c2.308,0,5.609,0.196,8.447,0.659c2.173,0.396,4.022,0.79,5.938,0.857
		c0.593,0,0.727,0.262,0.727,0.594c0,0.462-0.134,1.121-0.27,3.168c-0.06,1.847-0.06,4.948-0.127,5.741
		c-0.066,0.857-0.33,1.187-0.659,1.187c-0.397,0-0.464-0.397-0.464-1.187c0-2.178-0.922-4.423-2.441-5.608
		c-2.044-1.718-6.269-3.104-11.419-3.104c-7.452,0-11.017,1.98-13.068,3.894c-4.284,3.961-5.211,8.975-5.211,14.65
		c0,10.757,8.513,20.327,20.921,20.327c4.352,0,7.257-0.332,9.57-2.642c1.252-1.252,2.044-3.629,2.24-4.685
		c0.134-0.596,0.201-0.79,0.599-0.79c0.262,0,0.524,0.395,0.524,0.79s-0.794,5.278-1.385,7.193c-0.33,1.057-0.465,1.254-1.453,1.65
		c-2.374,0.924-6.732,1.253-10.491,1.253C462.149,148.735,456.271,146.688,451.718,142.732z"/>
	<path fill="#005687" d="M510.317,131.708c0,5.414,0,9.836,0.262,12.146c0.195,1.648,0.464,2.703,2.246,2.97
		c0.788,0.131,2.112,0.262,2.637,0.262c0.396,0,0.464,0.265,0.464,0.462c0,0.265-0.268,0.463-0.927,0.463
		c-3.168,0-6.861-0.198-7.19-0.198c-0.262,0-4.291,0.198-6.006,0.198c-0.658,0-0.928-0.131-0.928-0.463
		c0-0.197,0.134-0.395,0.463-0.395c0.531,0,1.191-0.133,1.717-0.265c1.189-0.264,1.52-1.386,1.715-3.034
		c0.268-2.311,0.268-6.732,0.268-12.146V108.15l-8.385,0.132c-3.626,0.065-5.011,0.462-5.871,1.783
		c-0.661,0.988-0.728,1.386-0.923,1.78c-0.134,0.465-0.329,0.528-0.599,0.528c-0.128,0-0.39-0.131-0.39-0.46
		c0-0.596,1.184-5.609,1.25-6.071c0.136-0.333,0.397-1.055,0.593-1.055c0.397,0,0.994,0.46,2.575,0.659
		c1.649,0.198,3.896,0.263,4.554,0.263h21.911c1.91,0,3.234-0.132,4.156-0.263c0.86-0.134,1.386-0.267,1.647-0.267
		c0.27,0,0.27,0.33,0.27,0.662c0,1.716-0.202,5.742-0.202,6.401c0,0.46-0.262,0.727-0.524,0.727c-0.269,0-0.397-0.2-0.464-0.99
		l-0.067-0.596c-0.196-1.715-1.452-2.968-6.994-3.101l-7.257-0.132V131.708z"/>
	<path fill="#005687" d="M543.172,131.708c0,5.414,0,9.836,0.262,12.146c0.202,1.648,0.397,2.703,2.112,2.97
		c0.86,0.131,2.112,0.262,2.644,0.262c0.329,0,0.463,0.265,0.463,0.462c0,0.265-0.27,0.463-0.929,0.463
		c-3.234,0-6.993-0.198-7.257-0.198c-0.329,0-3.961,0.198-5.743,0.198c-0.591,0-0.921-0.131-0.921-0.463
		c0-0.197,0.128-0.462,0.457-0.462c0.531,0,1.258-0.131,1.783-0.262c1.122-0.267,1.324-1.321,1.52-2.97
		c0.263-2.311,0.329-6.732,0.329-12.146v-9.896c0-8.713,0-10.296-0.128-12.079c-0.134-1.912-0.599-2.771-1.849-3.033
		c-0.66-0.135-1.386-0.198-1.782-0.198c-0.264,0-0.464-0.267-0.464-0.463c0-0.33,0.262-0.462,0.927-0.462
		c1.91,0,5.542,0.132,5.871,0.132c0.264,0,4.022-0.132,5.806-0.132c0.659,0,0.927,0.132,0.927,0.462
		c0,0.197-0.268,0.463-0.464,0.463c-0.396,0-0.792,0-1.453,0.131c-1.579,0.329-1.91,1.124-2.044,3.1
		c-0.066,1.783-0.066,3.365-0.066,12.079V131.708z"/>
	<path fill="#005687" d="M579.065,104.787c13.066,0,22.967,7.982,22.967,21.05c0,12.539-9.302,22.898-23.297,22.898
		c-15.898,0-22.698-11.942-22.698-22.041C556.037,117.652,563.032,104.787,579.065,104.787z M580.389,146.427
		c5.213,0,15.704-2.771,15.704-19.006c0-13.464-8.184-20.523-17.357-20.523c-9.698,0-16.693,6.071-16.693,18.281
		C562.042,138.243,569.897,146.427,580.389,146.427z"/>
	<path fill="#005687" d="M616.613,140.354c0.128,4.62,0.659,6.006,2.24,6.402c1.056,0.265,2.38,0.33,2.904,0.33
		c0.264,0,0.464,0.198,0.464,0.462c0,0.332-0.396,0.463-1.055,0.463c-3.302,0-5.609-0.198-6.141-0.198
		c-0.525,0-2.967,0.198-5.61,0.198c-0.591,0-0.92-0.067-0.92-0.463c0-0.264,0.195-0.462,0.457-0.462c0.463,0,1.52-0.065,2.38-0.33
		c1.453-0.396,1.648-1.913,1.648-6.995v-32.14c0-2.242,0.33-2.834,0.793-2.834c0.659,0,1.649,1.119,2.24,1.715
		c0.928,0.922,9.375,9.9,18.347,19.136c5.743,5.939,11.944,12.605,13.727,14.453l-0.592-28.112
		c-0.066-3.631-0.396-4.885-2.179-5.214c-1.056-0.2-2.374-0.263-2.839-0.263c-0.396,0-0.457-0.33-0.457-0.528
		c0-0.33,0.457-0.397,1.116-0.397c2.644,0,5.414,0.132,6.073,0.132c0.66,0,2.575-0.132,4.95-0.132c0.592,0,1.057,0.067,1.057,0.397
		c0,0.199-0.264,0.528-0.661,0.528c-0.262,0-0.725,0-1.385,0.131c-1.915,0.397-2.045,1.518-2.045,4.883l-0.134,32.863
		c0,3.698-0.067,4.027-0.463,4.027c-0.593,0-1.185-0.463-4.42-3.433c-0.591-0.526-8.979-8.776-15.111-15.179
		c-6.731-7.059-13.264-13.926-15.045-15.902L616.613,140.354z"/>
</g>
<g>
	<path fill="#005687" d="M138.459,47.049c-9.774,9.164-12.317,22.157-12.317,35.424c0.002,26.901,16.555,42.581,32.431,47.216
		c3.308-9.116,4.212-17.552,4.212-24.636V38.582C151.616,38.728,144.204,41.714,138.459,47.049z"/>
	<path fill="#005687" d="M97.068,87.19c0.002,36.259,20.417,59.697,43.235,70.5c2.929-2.809,5.656-5.894,8.142-9.273
		c2.585-3.507,4.7-6.976,6.464-10.388c-11.928-1.816-22.312-6.104-31.041-13.842c-13.124-11.761-16.606-27.079-16.607-40.345
		c0-9.301,2.811-25.439,15.665-37.475c9.235-8.649,21.318-14.02,39.859-14.457v-9.206l-2.293-1.204
		c-2.548-1.339-5.208-2.6-7.955-3.787c-15.117,1.25-25.787,5.792-34.315,13.126C101.434,45.418,97.067,66.087,97.068,87.19z"/>
	<path fill="#005687" d="M93.161,153.547c-22.537-18.707-28.52-43.076-28.521-64.18C64.639,74.574,69.468,48.9,91.543,29.753
		c10.285-8.92,22.619-15.652,38.695-19.478c-12.546-3.118-25.987-4.863-39.389-4.99V5.273c-0.132,0-0.48,0-0.819,0
		c-0.338,0-0.683,0-0.816,0v0.012C78.5,5.387,67.761,6.522,57.471,8.563c-0.13,1.186-0.228,2.461-0.291,3.859
		c-0.42,8.459-0.42,15.861-0.42,56.037v46.521c0,23.543,0.002,43.056,0.653,54.891c9.438,4.472,20.104,6.851,31.801,7.041v0.019
		c0.125,0,0.493,0,0.816,0c0.324,0,0.691,0,0.819,0v-0.019c11.672-0.189,22.314-2.557,31.737-7.011
		C111.82,166.135,101.995,160.801,93.161,153.547z"/>
	<path fill="#005687" d="M17.278,22.704v82.349c0,11.408,2.323,26.311,13.332,41.938c0.104-9.327,0.105-20.149,0.105-32.01V68.459
		c0-33.827,0-44.419-0.251-51.972c-3.801,1.532-7.448,3.202-10.893,5.013L17.278,22.704z"/>
</g>
</svg>
